<?xml version="1.0" encoding="iso-8859-1"?>
<!-- Generator: Adobe Illustrator 19.0.0, SVG Export Plug-In . SVG Version: 6.00 Build 0)  -->
<svg version="1.1" id="Capa_1" xmlns="http://www.w3.org/2000/svg" xmlns:xlink="http://www.w3.org/1999/xlink" x="0px" y="0px"
	 viewBox="0 0 512.005 512.005" style="enable-background:new 0 0 512.005 512.005;" xml:space="preserve">
<polygon style="fill:#656D78;" points="88.003,480.021 88.003,496.021 8.003,496.021 8.003,280.021 88.003,280.021 88.003,296.021 
	"/>
<path style="fill:#EAC6BB;" d="M312.003,352.021l154.56-23.512c1.752-0.312,3.592-0.488,5.44-0.488c17.672,0,32,14.328,32,32
	c0,11.84-6.408,22.168-16,27.688l-216,116.312l-184-24v-184h72l125.512,24.488C300.563,323.069,312.003,336.189,312.003,352.021z"/>
<path style="fill:#D3B1A9;" d="M487.707,332.301c-1.328,10.016-7.28,18.56-15.704,23.408L261.675,464.877L88.003,441.381v38.64
	l184,24l216-116.312c9.592-5.512,16-15.84,16-27.688C504.003,348.085,497.395,337.805,487.707,332.301z"/>
<g>
	<polygon style="fill:#FFCE54;" points="432.003,103.989 432.003,135.989 408.003,119.117 296.003,39.989 183.771,119.189 
		160.003,135.989 160.003,103.989 296.003,7.989 	"/>
	<rect x="264.003" y="151.989" style="fill:#FFCE54;" width="64" height="104"/>
</g>
<polygon style="fill:#ED5565;" points="408.003,119.117 408.003,255.989 328.003,255.989 328.003,151.989 264.003,151.989 
	264.003,255.989 184.003,255.989 184.003,119.581 183.771,119.189 296.003,39.989 "/>
<polygon style="fill:#DA4453;" points="376.003,96.509 376.003,255.989 408.003,255.989 408.003,119.117 "/>
<polygon style="fill:#F6BB42;" points="400.003,113.461 408.003,119.117 432.003,135.989 432.003,103.989 400.003,81.397 "/>
<path d="M184.003,264.005c-4.424,0-8-3.576-8-8V119.549c0-4.424,3.576-8,8-8s8,3.576,8,8v136.456
	C192.003,260.429,188.427,264.005,184.003,264.005z"/>
<path d="M408.003,264.005c-4.424,0-8-3.576-8-8V119.069c0-4.424,3.576-8,8-8s8,3.576,8,8v136.936
	C416.003,260.429,412.427,264.005,408.003,264.005z"/>
<path d="M160.011,112.005c-2.512,0-4.984-1.176-6.544-3.384c-2.544-3.616-1.688-8.6,1.92-11.16l136-96
	c3.624-2.536,8.6-1.68,11.16,1.92c2.544,3.616,1.688,8.6-1.92,11.16l-136,96C163.211,111.525,161.603,112.005,160.011,112.005z"/>
<path d="M431.995,112.005c-1.592,0-3.2-0.48-4.608-1.464l-136-96c-3.608-2.552-4.472-7.536-1.92-11.16
	c2.552-3.6,7.528-4.464,11.16-1.92l136,96c3.608,2.552,4.472,7.536,1.92,11.16C436.979,110.829,434.507,112.005,431.995,112.005z"/>
<path d="M160.011,144.005c-2.512,0-4.984-1.176-6.544-3.384c-2.544-3.616-1.688-8.6,1.92-11.16l136-96
	c3.624-2.536,8.6-1.672,11.16,1.92c2.544,3.616,1.688,8.6-1.92,11.16l-136,96C163.211,143.525,161.603,144.005,160.011,144.005z"/>
<path d="M431.995,144.005c-1.592,0-3.2-0.48-4.608-1.464l-136-96c-3.608-2.552-4.472-7.536-1.92-11.16
	c2.552-3.592,7.528-4.464,11.16-1.92l136,96c3.608,2.552,4.472,7.536,1.92,11.16C436.979,142.829,434.507,144.005,431.995,144.005z"
	/>
<path d="M160.003,144.005c-4.424,0-8-3.576-8-8v-32c0-4.424,3.576-8,8-8s8,3.576,8,8v32
	C168.003,140.429,164.427,144.005,160.003,144.005z"/>
<path d="M432.003,144.005c-4.424,0-8-3.576-8-8v-32c0-4.424,3.576-8,8-8s8,3.576,8,8v32
	C440.003,140.429,436.427,144.005,432.003,144.005z"/>
<path d="M328.003,264.005h-64c-4.424,0-8-3.576-8-8v-104c0-4.424,3.576-8,8-8h64c4.424,0,8,3.576,8,8v104
	C336.003,260.429,332.427,264.005,328.003,264.005z M272.003,248.005h48v-88h-48V248.005z"/>
<path d="M408.003,264.005h-224c-4.424,0-8-3.576-8-8s3.576-8,8-8h224c4.424,0,8,3.576,8,8
	C416.003,260.429,412.427,264.005,408.003,264.005z"/>
<path d="M48.243,480.005c-4.424,0-8.04-3.576-8.04-8s3.536-8,7.952-8h0.088c4.416,0,8,3.576,8,8S52.659,480.005,48.243,480.005z"/>
<path d="M488.019,395.725c-2.768,0-5.456-1.432-6.928-3.992c-2.216-3.832-0.904-8.72,2.912-10.928c7.408-4.28,12-12.248,12-20.8
	c0-13.232-10.768-24-24-24c-4.424,0-8-3.576-8-8s3.576-8,8-8c22.056,0,40,17.944,40,40c0,14.232-7.656,27.512-19.984,34.64
	C490.755,395.381,489.379,395.725,488.019,395.725z"/>
<path d="M272.011,512.005c-2.848,0-5.608-1.52-7.056-4.208c-2.096-3.888-0.632-8.744,3.256-10.832l216-116.288
	c3.872-2.096,8.736-0.64,10.832,3.256c2.096,3.888,0.632,8.744-3.256,10.832l-216,116.288
	C274.587,511.701,273.291,512.005,272.011,512.005z"/>
<path d="M272.011,512.005c-0.344,0-0.688-0.024-1.04-0.072l-184-24c-4.384-0.568-7.48-4.584-6.896-8.96
	c0.568-4.384,4.552-7.52,8.96-6.896l184,24c4.384,0.568,7.48,4.584,6.896,8.96C279.411,509.069,275.971,512.005,272.011,512.005z"/>
<path d="M88.003,504.005h-80c-4.424,0-8-3.576-8-8v-216c0-4.424,3.576-8,8-8h80c4.424,0,8,3.576,8,8v216
	C96.003,500.429,92.427,504.005,88.003,504.005z M16.003,488.005h64v-200h-64V488.005z"/>
<path d="M311.995,360.005c-3.888,0-7.296-2.832-7.896-6.8c-0.664-4.368,2.336-8.448,6.704-9.112l154.536-23.52
	c4.36-0.664,8.456,2.336,9.112,6.704c0.664,4.368-2.336,8.448-6.704,9.112l-154.536,23.52
	C312.803,359.973,312.395,360.005,311.995,360.005z"/>
<path d="M280.003,392.005c-4.424,0-8-3.576-8-8s3.576-8,8-8c13.232,0,24-10.768,24-24c0-11.712-8.352-21.656-19.864-23.64
	c-4.352-0.752-7.272-4.888-6.52-9.24s4.912-7.248,9.24-6.52c19.208,3.296,33.144,19.88,33.144,39.4
	C320.003,374.061,302.059,392.005,280.003,392.005z"/>
<path d="M285.507,328.485c-0.504,0-1.024-0.048-1.536-0.152l-125.504-24.48c-4.336-0.84-7.168-5.048-6.32-9.384
	s5.04-7.184,9.384-6.32l125.504,24.48c4.336,0.84,7.168,5.048,6.32,9.384C292.611,325.837,289.259,328.485,285.507,328.485z"/>
<path d="M160.003,304.005h-72c-4.424,0-8-3.576-8-8s3.576-8,8-8h72c4.424,0,8,3.576,8,8S164.427,304.005,160.003,304.005z"/>
<path d="M276.643,391.829c-0.208,0-0.416-0.008-0.624-0.024l-100.632-7.824c-4.408-0.344-7.704-4.184-7.36-8.592
	c0.344-4.416,4.184-7.736,8.592-7.36l100.632,7.824c4.408,0.344,7.704,4.184,7.36,8.592
	C284.283,388.637,280.787,391.829,276.643,391.829z"/>
<path d="M466.523,336.469c-3.832,0-7.208-2.752-7.872-6.648c-0.752-4.352,2.168-8.488,6.528-9.232
	c2.232-0.392,4.52-0.584,6.824-0.584c4.424,0,8,3.576,8,8s-3.576,8-8,8c-1.408,0-2.784,0.12-4.12,0.344
	C467.435,336.429,466.971,336.469,466.523,336.469z"/>
<path d="M280.003,392.005c-1.424,0-2.824-0.08-4.192-0.224c-4.4-0.472-7.576-4.408-7.112-8.8c0.472-4.4,4.384-7.624,8.8-7.112
	c0.824,0.088,1.664,0.136,2.504,0.136c4.424,0,8,3.576,8,8S284.427,392.005,280.003,392.005z"/>
<path d="M280.243,216.005c-4.424,0-8.04-3.576-8.04-8s3.536-8,7.952-8h0.088c4.416,0,8,3.576,8,8S284.659,216.005,280.243,216.005z"
	/>
<g>
</g>
<g>
</g>
<g>
</g>
<g>
</g>
<g>
</g>
<g>
</g>
<g>
</g>
<g>
</g>
<g>
</g>
<g>
</g>
<g>
</g>
<g>
</g>
<g>
</g>
<g>
</g>
<g>
</g>
</svg>
